<svg xmlns="http://www.w3.org/2000/svg" viewBox="0 0 1200 675" width="1200" height="675" role="img" aria-label="Business loan illustration: a shop with a growth chart">
<defs>
  <linearGradient id="bg" x1="0" y1="0" x2="1" y2="1"><stop offset="0" stop-color="#1d1250"/><stop offset="1" stop-color="#05021f"/></linearGradient>
  <radialGradient id="glow" cx=".5" cy=".5" r=".5"><stop offset="0" stop-color="#2ed3b7" stop-opacity=".5"/><stop offset="1" stop-color="#2ed3b7" stop-opacity="0"/></radialGradient>
  <pattern id="dots" width="34" height="34" patternUnits="userSpaceOnUse"><circle cx="3" cy="3" r="1.6" fill="#fff" opacity=".09"/></pattern>
  <linearGradient id="acc" x1="0" y1="0" x2="1" y2="1"><stop offset="0" stop-color="#2ed3b7"/><stop offset="1" stop-color="#0f8f86"/></linearGradient>
  <linearGradient id="gold" x1="0" y1="0" x2="1" y2="1"><stop offset="0" stop-color="#ffe9a3"/><stop offset="1" stop-color="#e3a12c"/></linearGradient>
  <linearGradient id="goldbar" x1="0" y1="0" x2="0" y2="1"><stop offset="0" stop-color="#ffeaa6"/><stop offset="1" stop-color="#dc9a25"/></linearGradient>
  <linearGradient id="lav" x1="0" y1="0" x2="1" y2="1"><stop offset="0" stop-color="#f4ecff"/><stop offset="1" stop-color="#b79cf2"/></linearGradient>
</defs>
<rect width="1200" height="675" fill="url(#bg)"/>
<circle cx="600" cy="345" r="360" fill="url(#glow)"/>
<rect width="1200" height="675" fill="url(#dots)"/>
<ellipse cx="600" cy="565" rx="330" ry="22" fill="#000" opacity=".32"/>

<rect x="322" y="300" width="456" height="240" rx="16" fill="#0f2f55"/>
<rect x="322" y="300" width="456" height="240" rx="16" fill="none" stroke="#fff" stroke-opacity=".14" stroke-width="3"/>
<rect x="348" y="392" width="130" height="96" rx="10" fill="#0a2144"/><rect x="348" y="392" width="130" height="96" rx="10" fill="none" stroke="#2ed3b7" stroke-opacity=".6" stroke-width="3"/>
<rect x="622" y="392" width="130" height="96" rx="10" fill="#0a2144"/><rect x="622" y="392" width="130" height="96" rx="10" fill="none" stroke="#2ed3b7" stroke-opacity=".6" stroke-width="3"/>
<path d="M366 470 L410 410 H432 L388 470 Z" fill="#fff" opacity=".12"/><path d="M640 470 L684 410 H706 L662 470 Z" fill="#fff" opacity=".12"/>
<rect x="510" y="380" width="80" height="160" rx="10" fill="#061a33"/><circle cx="574" cy="465" r="6" fill="#ffd66b"/>
<rect x="500" y="346" width="100" height="26" rx="8" fill="url(#acc)"/>
<path d="M310 270 h80 v34 a40.0 40.0 0 0 1 -80 0 z" fill="#ffffff"/><path d="M390 270 h80 v34 a40.0 40.0 0 0 1 -80 0 z" fill="#2ed3b7"/><path d="M470 270 h80 v34 a40.0 40.0 0 0 1 -80 0 z" fill="#ffffff"/><path d="M550 270 h80 v34 a40.0 40.0 0 0 1 -80 0 z" fill="#2ed3b7"/><path d="M630 270 h80 v34 a40.0 40.0 0 0 1 -80 0 z" fill="#ffffff"/><path d="M710 270 h80 v34 a40.0 40.0 0 0 1 -80 0 z" fill="#2ed3b7"/>
<rect x="304" y="262" width="492" height="14" rx="7" fill="#2ed3b7"/>
<rect x="830" y="230" width="230" height="200" rx="22" fill="#fff" fill-opacity=".08" stroke="#fff" stroke-opacity=".22" stroke-width="3"/>
<g fill="url(#acc)"><rect x="860" y="360" width="30" height="44" rx="6"/><rect x="904" y="335" width="30" height="69" rx="6"/><rect x="948" y="305" width="30" height="99" rx="6"/><rect x="992" y="270" width="30" height="134" rx="6"/></g>
<path d="M858 322 L916 288 L958 296 L1020 244" fill="none" stroke="#ffd66b" stroke-width="7" stroke-linecap="round" stroke-linejoin="round"/>
<path d="M996 238 L1024 240 L1018 268" fill="none" stroke="#ffd66b" stroke-width="7" stroke-linecap="round" stroke-linejoin="round"/>
<g>
  <circle cx="232" cy="500" r="44" fill="url(#gold)"/>
  <circle cx="232" cy="500" r="34.3" fill="none" stroke="#b9780f" stroke-opacity=".55" stroke-width="2.6"/>
  <text x="232" y="515.8" text-anchor="middle" font-family="Arial, Helvetica, sans-serif" font-weight="700" font-size="44" fill="#8a5606">&#8377;</text>
</g><g>
  <circle cx="268" cy="424" r="34" fill="url(#gold)"/>
  <circle cx="268" cy="424" r="26.5" fill="none" stroke="#b9780f" stroke-opacity=".55" stroke-width="2.0"/>
  <text x="268" y="436.2" text-anchor="middle" font-family="Arial, Helvetica, sans-serif" font-weight="700" font-size="34" fill="#8a5606">&#8377;</text>
</g>
<path d="M880 172Q880 190 898 190Q880 190 880 208Q880 190 862 190Q880 190 880 172Z" fill="#fff" opacity="0.85"/><path d="M200 284Q200 300 216 300Q200 300 200 316Q200 300 184 300Q200 300 200 284Z" fill="#7cf0da" opacity="0.85"/><path d="M1100 406Q1100 420 1114 420Q1100 420 1100 434Q1100 420 1086 420Q1100 420 1100 406Z" fill="#fff" opacity="0.7"/>

</svg>
